# xmcd
#
# Track frame offsets:
#	150
#	13064
#	23226
#	36362
#	47644
#	65753
#	81465
#	93956
#	116880
#	130685
#	141325
#	158292
#	173773
#	188281
#	200940
#	214708
#	224915
#	238936
#	255167
#	268174
#	285755
#	299837
#
# Disc length: 4270 seconds
#
# Revision: 0
# Processed by: cddbd v1.5.2PL0 Copyright (c) Steve Scherf et al.
# Submitted via: dBpowerAMP V4.0
#
DISCID=5110ac16
DTITLE=Ray Charles - Brother Ray The Genius 1949-1960 - CD2
DYEAR=1900
DGENRE=Soul
TTITLE0=Talkin' 'Bout You
TTITLE1=Yes Indeed
TTITLE2=I had a Dream
TTITLE3=You Be My Baby
TTITLE4=Rockhouse Part I and II
TTITLE5=The Right Time
TTITLE6=That's Enough
TTITLE7=What D I Say Part I and II
TTITLE8=I Believe to My Soul
TTITLE9=I'm Movin'on
TTITLE10=Don't Let The Sun Catch You Crying
TTITLE11=Just For A Thrill
TTITLE12=Tell The Truth
TTITLE13=Early in The Morning
TTITLE14=My Baby I Love Her, Yes I Do
TTITLE15=Sticks and Stones
TTITLE16=Worried Life Blues
TTITLE17=Georgia On My Mind
TTITLE18=Them That Got
TTITLE19=Ruby
TTITLE20=One Mint Julep
TTITLE21=I've Got News For You
EXTD=
EXTT0=
EXTT1=
EXTT2=
EXTT3=
EXTT4=
EXTT5=
EXTT6=
EXTT7=
EXTT8=
EXTT9=
EXTT10=
EXTT11=
EXTT12=
EXTT13=
EXTT14=
EXTT15=
EXTT16=
EXTT17=
EXTT18=
EXTT19=
EXTT20=
EXTT21=
PLAYORDER=
